<svg width="24" height="24" viewBox="0 0 24 24" fill="none" xmlns="http://www.w3.org/2000/svg">
<g id="alarm">
<g id="Line_Icons">
<g id="Group">
<path id="Shape" d="M8.55518 19C9.24818 20.19 10.5242 21 12.0002 21C13.4762 21 14.7522 20.19 15.4452 19H8.55518Z" fill="#757575"/>
<path id="Shape_2" fill-rule="evenodd" clip-rule="evenodd" d="M3 15.279V18H21V15.279L20.316 15.052C18.931 14.589 18 13.298 18 11.838V9C18 5.691 15.309 3 12 3C8.691 3 6 5.691 6 9V11.838C6 13.298 5.069 14.589 3.684 15.052L3 15.279ZM17.966 16H6.035C7.255 14.998 8 13.486 8 11.838V9C8 6.794 9.794 5 12 5C14.206 5 16 6.794 16 9V11.838C16 13.486 16.745 14.998 17.966 16Z" fill="#757575"/>
</g>
</g>
</g>
</svg>
