<svg width="16" height="16" viewBox="0 0 16 16" fill="none" xmlns="http://www.w3.org/2000/svg">
<g id="bookmark-3 copy">
<g id="Line_Icons">
<path id="Shape" fill-rule="evenodd" clip-rule="evenodd" d="M5.74466 14.616C5.82733 14.65 5.91399 14.6667 5.99999 14.6667C6.17333 14.6667 6.34399 14.5987 6.47133 14.4714L14.4713 6.47136C14.732 6.21069 14.732 5.78936 14.4713 5.52869L10.4713 1.52869C10.2107 1.26802 9.78933 1.26802 9.52866 1.52869L1.52866 9.52869C1.33799 9.71936 1.28133 10.006 1.38399 10.2554C1.48666 10.504 1.73066 10.6667 1.99999 10.6667H5.33333V14C5.33333 14.2694 5.49599 14.5134 5.74466 14.616ZM5.99999 9.33336H3.60933L9.99999 2.94269L13.0573 6.00002L6.66666 12.3907V10C6.66666 9.63136 6.36866 9.33336 5.99999 9.33336Z" fill="#757575"/>
</g>
</g>
</svg>
