<svg width="16" height="16" viewBox="0 0 16 16" fill="none" xmlns="http://www.w3.org/2000/svg">
<g id="chat-bubble-circle-2 copy">
<g id="Line_Icons">
<path id="Shape" fill-rule="evenodd" clip-rule="evenodd" d="M1.33182 14H7.99848C11.6745 14 14.6652 11.3087 14.6652 8C14.6652 4.69133 11.6745 2 7.99848 2C4.32248 2 1.33182 4.69133 1.33182 8C1.33182 9.15667 1.69248 10.2613 2.38115 11.224L0.843817 12.88C0.66315 13.074 0.61515 13.3567 0.72115 13.6C0.826484 13.8427 1.06648 14 1.33182 14ZM7.99848 12.6667H2.86048L3.74582 11.7133C3.97782 11.4633 3.98382 11.0787 3.75982 10.8213C3.04382 10 2.66515 9.02467 2.66515 8C2.66515 5.42733 5.05782 3.33333 7.99848 3.33333C10.9392 3.33333 13.3318 5.42733 13.3318 8C13.3318 10.5733 10.9392 12.6667 7.99848 12.6667Z" fill="#757575"/>
</g>
</g>
</svg>
