<svg width="25" height="25" viewBox="0 0 25 25" fill="none" xmlns="http://www.w3.org/2000/svg">
<g id="fire-extinguisher">
<g id="Line_Icons">
<path id="Shape" fill-rule="evenodd" clip-rule="evenodd" d="M18.804 2.021C19.098 1.961 19.403 2.039 19.634 2.228C19.866 2.417 20 2.701 20 3.001V7.001C20 7.301 19.866 7.585 19.634 7.774C19.402 7.965 19.096 8.04 18.804 7.982L13.804 6.982C13.336 6.888 13 6.478 13 6.001H12V7.144C13.721 7.591 15 9.143 15 11.001V21.001C15 21.553 14.553 22.001 14 22.001H8C7.447 22.001 7 21.553 7 21.001V11.001C7 9.143 8.28 7.591 10 7.144V6.103C7.721 6.566 6 8.587 6 11.001V18.001H4V11.001C4 8.391 5.44 6.113 7.564 4.911L4.684 3.951L5.317 2.052L11.162 4.001H13C13 3.524 13.336 3.114 13.804 3.021L18.804 2.021ZM12 17.001H13V13.001H12V17.001ZM13 11.001H11C10.447 11.001 10 11.449 10 12.001V18.001C10 18.553 10.447 19.001 11 19.001H13V20.001H9V11.001C9 9.898 9.896 9.001 11 9.001C12.104 9.001 13 9.898 13 11.001ZM15 5.181L18 5.781V4.22L15 4.821V5.181Z" fill="#757575"/>
</g>
</g>
</svg>
