<svg width="24" height="24" viewBox="0 0 24 24" fill="none" xmlns="http://www.w3.org/2000/svg">
<g id="gold-nuggets">
<g id="Line_Icons">
<g id="Group">
<path id="Shape" fill-rule="evenodd" clip-rule="evenodd" d="M21.9609 13.726L23.9609 20.726C24.0479 21.027 23.9869 21.352 23.7989 21.602C23.6089 21.853 23.3139 22 22.9999 22H12.9999C12.6859 22 12.3909 21.853 12.2009 21.602C12.0129 21.352 11.9519 21.027 12.0389 20.726L14.0389 13.726C14.1609 13.296 14.5539 13 14.9999 13H20.9999C21.4459 13 21.8389 13.296 21.9609 13.726ZM15.7539 15L14.3259 20H21.6739L20.2459 15H15.7539Z" fill="#757575"/>
<path id="Shape_2" fill-rule="evenodd" clip-rule="evenodd" d="M8.99991 13C9.44591 13 9.83891 13.296 9.96091 13.726L11.9609 20.726C12.0479 21.027 11.9869 21.352 11.7989 21.602C11.6089 21.853 11.3139 22 10.9999 22H0.999907C0.685907 22 0.390907 21.853 0.200907 21.602C0.012907 21.352 -0.048093 21.027 0.038907 20.726L2.03891 13.726C2.16091 13.296 2.55391 13 2.99991 13H8.99991ZM3.75391 15L2.32591 20H9.67391L8.24591 15H3.75391Z" fill="#757575"/>
<path id="Shape_3" fill-rule="evenodd" clip-rule="evenodd" d="M16.9999 12H6.99991C6.68591 12 6.39091 11.853 6.20091 11.602C6.01291 11.352 5.95191 11.028 6.03891 10.726L8.03891 3.726C8.16091 3.296 8.55391 3 8.99991 3H14.9999C15.4459 3 15.8389 3.296 15.9609 3.726L17.9609 10.726C18.0479 11.028 17.9869 11.352 17.7989 11.602C17.6089 11.852 17.3139 12 16.9999 12ZM14.2459 5H9.75391L8.32591 10H15.6739L14.2459 5Z" fill="#757575"/>
</g>
</g>
</g>
</svg>
