<svg width="24" height="24" viewBox="0 0 24 24" fill="none" xmlns="http://www.w3.org/2000/svg">
<g id="graduation-hat">
<g id="Line_Icons">
<g id="Group">
<path id="Shape" fill-rule="evenodd" clip-rule="evenodd" d="M22.447 7.10599L12.447 2.10599C12.166 1.96499 11.834 1.96499 11.552 2.10599L1.552 7.10599C1.352 7.20499 1.198 7.37899 1.107 7.56799C1.047 7.68999 1 7.89799 1 7.99999V13.765C1 14.316 1.448 14.765 2 14.765C2.552 14.765 3 14.316 3 13.765V9.47799L5 10.278V15.182C5 15.56 5.214 15.906 5.553 16.076C5.71904 16.1589 5.88554 16.2436 6.05351 16.3292L6.0538 16.3293C7.62471 17.1292 9.32518 17.995 12 17.995C14.6763 17.995 16.3779 17.1282 17.949 16.328C18.1161 16.2429 18.2818 16.1585 18.447 16.076C18.786 15.905 19 15.56 19 15.181V10.277L22.372 8.92799C22.737 8.78199 22.983 8.43499 22.999 8.04099C23.016 7.64799 22.799 7.28299 22.447 7.10599ZM17 14.563L16.025 15.05C13.504 16.311 10.495 16.311 7.975 15.05L7 14.563V11.078L11.628 12.93C11.748 12.978 11.874 13 12 13C12.126 13 12.252 12.978 12.372 12.929L17 11.077V14.563ZM4.439 7.89799L12 10.923L19.561 7.89799L12 4.11899L4.439 7.89799Z" fill="#757575"/>
<path id="Shape_2" d="M2 16C1.448 16 1 16.448 1 17V19C1 19.553 1.448 20 2 20C2.552 20 3 19.553 3 19V17C3 16.448 2.552 16 2 16Z" fill="#757575"/>
</g>
</g>
</g>
</svg>
