<svg width="24" height="25" viewBox="0 0 24 25" fill="none" xmlns="http://www.w3.org/2000/svg">
<g id="move-to-top">
<path id="Shape" d="M18 2.99899H16.414L17.707 1.70599L16.293 0.291992L12.586 3.99899L16.293 7.70599L17.707 6.29199L16.414 4.99899H18C19.104 4.99899 20 5.89499 20 6.99899V16.999C20 18.103 19.104 18.999 18 18.999H12V20.999H18C20.205 20.999 22 19.204 22 16.999V6.99899C22 4.79399 20.205 2.99899 18 2.99899Z" fill="#FF4500"/>
<path id="Shape_2" d="M9 16.999H3C2.447 16.999 2 17.446 2 17.999V21.999C2 22.552 2.447 22.999 3 22.999H9C9.553 22.999 10 22.552 10 21.999V17.999C10 17.446 9.553 16.999 9 16.999Z" fill="#FF4500"/>
<path id="Shape_3" fill-rule="evenodd" clip-rule="evenodd" d="M3 8.99899H9C9.553 8.99899 10 9.44599 10 9.99899V13.999C10 14.552 9.553 14.999 9 14.999H3C2.447 14.999 2 14.552 2 13.999V9.99899C2 9.44599 2.447 8.99899 3 8.99899ZM4 12.999H8V10.999H4V12.999Z" fill="#FF4500"/>
<path id="Shape_4" fill-rule="evenodd" clip-rule="evenodd" d="M3 0.998993H9C9.553 0.998993 10 1.44599 10 1.99899V5.99899C10 6.55199 9.553 6.99899 9 6.99899H3C2.447 6.99899 2 6.55199 2 5.99899V1.99899C2 1.44599 2.447 0.998993 3 0.998993ZM4 4.99899H8V2.99899H4V4.99899Z" fill="#FF4500"/>
</g>
</svg>
