<svg width="140" height="46" viewBox="0 0 140 46" fill="none" xmlns="http://www.w3.org/2000/svg">
<g id="Page 1">
<g id="Group 3">
<mask id="mask0_0_694" style="mask-type:luminance" maskUnits="userSpaceOnUse" x="0" y="0" width="46" height="46">
<path id="Clip 2" fill-rule="evenodd" clip-rule="evenodd" d="M0 0.0223694H45.6511V45.0213H0V0.0223694Z" fill="white"/>
</mask>
<g mask="url(#mask0_0_694)">
<path id="Fill 1" fill-rule="evenodd" clip-rule="evenodd" d="M22.8255 0.0223618C35.4317 0.0223618 45.6511 10.0957 45.6511 22.5218C45.6511 34.9479 35.4317 45.0213 22.8255 45.0213C10.2193 45.0213 0 34.9479 0 22.5218C0 10.0957 10.2193 0.0223618 22.8255 0.0223618" fill="url(#paint0_linear_0_694)"/>
</g>
</g>
<path id="Fill 4" fill-rule="evenodd" clip-rule="evenodd" d="M27.9576 26.7695C26.7235 26.7695 25.7173 25.7655 25.7173 24.5341C25.7173 23.3027 26.7235 22.2987 27.9576 22.2987C29.1916 22.2987 30.1978 23.3027 30.1978 24.5341C30.2478 25.7655 29.2861 26.8028 28.0521 26.8527H27.9409L27.9576 26.7695ZM28.3578 30.5913C26.768 31.7838 24.8224 32.394 22.8323 32.3108C20.8422 32.394 18.8966 31.7838 17.3068 30.5913C17.0955 30.3362 17.1344 29.9534 17.3901 29.7426C17.6125 29.5596 17.9294 29.5596 18.1573 29.7426C19.5025 30.7244 21.1424 31.2237 22.8101 31.1459C24.4777 31.2347 26.1231 30.7577 27.4851 29.787C27.7297 29.5485 28.1299 29.554 28.3689 29.7981C28.608 30.0421 28.6024 30.4415 28.3578 30.68V30.5913ZM15.3667 24.4565C15.3667 23.2251 16.3729 22.221 17.6069 22.221C18.841 22.221 19.8472 23.2251 19.8472 24.4565C19.8472 25.6878 18.841 26.6919 17.6069 26.6919C16.3673 26.6807 15.3667 25.6878 15.3667 24.4565V24.4565ZM37.7301 22.221C37.6634 20.4239 36.1514 19.0205 34.3447 19.0815C33.5442 19.1092 32.7827 19.4365 32.2046 19.9856C29.6586 18.255 26.6679 17.3065 23.5939 17.2399L25.0447 10.2786L29.8309 11.2826C29.9643 12.5085 31.065 13.396 32.2935 13.2628C33.522 13.1298 34.4114 12.0314 34.278 10.8056C34.1446 9.57978 33.0439 8.69228 31.8154 8.82535C31.1095 8.89746 30.4757 9.30792 30.1255 9.91808L24.6445 8.82535C24.272 8.74214 23.8996 8.97511 23.8162 9.3523V9.36339L22.1652 17.1068C19.0522 17.1567 16.0227 18.1108 13.4433 19.8525C12.1314 18.6212 10.0635 18.6821 8.82947 19.9967C7.5954 21.3058 7.65655 23.3692 8.974 24.6006C9.22971 24.8392 9.52433 25.0444 9.8523 25.1886C9.83007 25.5159 9.83007 25.8432 9.8523 26.1704C9.8523 31.1682 15.6891 35.234 22.8879 35.234C30.0866 35.234 35.9234 31.1737 35.9234 26.1704C35.9457 25.8432 35.9457 25.5159 35.9234 25.1886C37.0463 24.6284 37.7523 23.4747 37.7301 22.221V22.221Z" fill="white"/>
<path id="Fill 6" fill-rule="evenodd" clip-rule="evenodd" d="M126.099 9.78723C127.744 9.78723 129.078 11.1018 129.078 12.7234C129.078 14.345 127.744 15.6596 126.099 15.6596C124.454 15.6596 123.121 14.345 123.121 12.7234C123.121 11.1018 124.454 9.78723 126.099 9.78723" fill="#FF4500"/>
<path id="Fill 8" fill-rule="evenodd" clip-rule="evenodd" d="M76.9822 19.1581C79.2239 19.3051 81.1084 20.8763 81.6098 23.0297H72.3661C72.8617 20.8707 74.7346 19.2994 76.9822 19.1581V19.1581ZM83.0102 26.127C84.2319 26.2118 85.2922 25.3075 85.3845 24.1036C85.3902 24.0358 85.3902 23.9567 85.3902 23.8832C85.3729 23.4649 85.321 23.041 85.2346 22.6284C84.4854 18.706 81.068 15.8178 77.0052 15.6596C72.3777 15.6596 68.5107 19.8307 68.5107 24.9514C68.5107 30.0721 72.3142 34.2489 76.9995 34.2489C79.4832 34.345 81.8921 33.3615 83.5633 31.5585C84.2492 30.8238 84.1916 29.6877 83.4424 29.0152C83.3848 28.9643 83.3328 28.9191 83.2752 28.8795C82.526 28.4217 81.5522 28.5178 80.9182 29.1169C79.8751 30.1343 78.4747 30.7164 76.9995 30.7616C74.4523 30.5638 72.4122 28.6082 72.1587 26.1044H82.941L83.0102 26.127Z" fill="black"/>
<path id="Fill 10" fill-rule="evenodd" clip-rule="evenodd" d="M68.5109 17.4054C68.5109 16.566 67.8849 15.852 67.0448 15.7484C64.777 15.3723 62.4708 16.2063 60.9828 17.9505V17.7325C60.9828 16.8004 60.225 16.0482 59.2861 16.0482C58.3471 16.0482 57.5894 16.8004 57.5894 17.7325V31.5227C57.5674 32.4275 58.2648 33.196 59.1763 33.2724C60.1042 33.3378 60.9169 32.6401 60.9773 31.7189C60.9828 31.6535 60.9828 31.5881 60.9773 31.5227V24.4477C60.8291 21.6242 63.0089 19.2205 65.8533 19.0679C66.1058 19.0515 66.3639 19.057 66.6165 19.0842H66.9569C67.8355 19.0079 68.5109 18.283 68.5109 17.4054" fill="black"/>
<path id="Fill 12" fill-rule="evenodd" clip-rule="evenodd" d="M127.092 19.3001C127.092 18.3687 126.427 17.617 125.603 17.617C124.778 17.617 124.113 18.3687 124.113 19.3001V31.5935C124.113 32.5249 124.778 33.2766 125.603 33.2766C126.427 33.2766 127.092 32.5249 127.092 31.5935V19.3001Z" fill="black"/>
<path id="Fill 14" fill-rule="evenodd" clip-rule="evenodd" d="M94.5054 30.8002C91.8953 30.8002 89.7709 28.1925 89.7709 24.9669C89.7709 21.7413 91.8788 19.1336 94.5054 19.1336C97.1321 19.1336 99.24 21.7413 99.24 24.9669C99.24 28.1925 97.1321 30.7718 94.5164 30.7718L94.5054 30.8002ZM102.269 9.57587C102.269 8.61215 101.508 7.82979 100.57 7.82979C99.6317 7.82979 98.8702 8.61215 98.8702 9.57587V17.3989C97.7225 16.2085 96.1443 15.5622 94.5164 15.6075C90.0854 15.6075 86.3828 19.7912 86.3828 24.9272C86.3828 30.0632 90.0302 34.2525 94.5164 34.2525C96.1718 34.3036 97.7721 33.6517 98.9475 32.4442C99.2124 33.3682 100.156 33.8954 101.055 33.6233C101.734 33.4192 102.22 32.807 102.264 32.0757L102.269 9.57587Z" fill="black"/>
<path id="Fill 16" fill-rule="evenodd" clip-rule="evenodd" d="M112.383 30.8002C109.773 30.8002 107.649 28.1925 107.649 24.9669C107.649 21.7413 109.757 19.1336 112.383 19.1336C115.01 19.1336 117.118 21.7413 117.118 24.9669C117.118 28.1925 115.01 30.7718 112.395 30.7718L112.383 30.8002ZM120.142 9.57587C120.142 8.61215 119.38 7.82979 118.442 7.82979C117.504 7.82979 116.743 8.61215 116.743 9.57587V17.3989C115.595 16.2085 114.017 15.5622 112.389 15.6075C107.958 15.6075 104.255 19.7912 104.255 24.9272C104.255 30.0632 107.903 34.2525 112.389 34.2525C114.044 34.3036 115.645 33.6517 116.82 32.4442C117.085 33.3682 118.028 33.8954 118.928 33.6233C119.607 33.4192 120.092 32.807 120.136 32.0757L120.142 9.57587Z" fill="black"/>
<g id="Group 20">
<mask id="mask1_0_694" style="mask-type:luminance" maskUnits="userSpaceOnUse" x="130" y="11" width="10" height="23">
<path id="Clip 19" fill-rule="evenodd" clip-rule="evenodd" d="M130.093 11.7844H139.977V33.2691H130.093V11.7844Z" fill="white"/>
</mask>
<g mask="url(#mask1_0_694)">
<path id="Fill 18" fill-rule="evenodd" clip-rule="evenodd" d="M136.809 31.5639V18.9642H138.341C139.19 19.0138 139.914 18.3915 139.965 17.582C139.965 17.5544 139.971 17.5214 139.971 17.4883C140.046 16.6788 139.42 15.9629 138.582 15.8914C138.536 15.8858 138.484 15.8858 138.439 15.8858H136.814V13.5454C136.826 12.6368 136.103 11.8713 135.156 11.7887C134.186 11.7226 133.342 12.4275 133.273 13.3582C133.267 13.3967 133.267 13.4408 133.267 13.4793V15.9244H131.729C130.88 15.8748 130.157 16.4971 130.105 17.3066C130.105 17.3342 130.099 17.3672 130.099 17.4002C130.025 18.2097 130.65 18.9256 131.488 18.9972C131.534 19.0027 131.586 19.0027 131.632 19.0027H133.164V31.5695C133.164 32.5057 133.956 33.2656 134.932 33.2656C135.908 33.3261 136.74 32.6103 136.803 31.6741C136.809 31.641 136.809 31.6025 136.809 31.5639" fill="black"/>
</g>
</g>
</g>
<defs>
<linearGradient id="paint0_linear_0_694" x1="44.5636" y1="2.11764" x2="3.16382" y2="2.11764" gradientUnits="userSpaceOnUse">
<stop stop-color="#FF2D55"/>
<stop offset="1" stop-color="#FF4500"/>
</linearGradient>
</defs>
</svg>
