<svg width="16" height="16" viewBox="0 0 16 16" fill="none" xmlns="http://www.w3.org/2000/svg">
<g id="share copy">
<g id="Line_Icons">
<path id="Shape" fill-rule="evenodd" clip-rule="evenodd" d="M10.0002 10.254C10.4895 9.69401 11.2002 9.33334 12.0002 9.33334C13.4702 9.33334 14.6668 10.5293 14.6668 12C14.6668 13.47 13.4702 14.6667 12.0002 14.6667C10.5302 14.6667 9.3335 13.47 9.3335 12C9.3335 11.8087 9.3555 11.6227 9.39483 11.442L6.00016 9.74468C5.51083 10.3047 4.80016 10.6667 4.00016 10.6667C2.53016 10.6667 1.3335 9.47001 1.3335 8.00001C1.3335 6.52934 2.53016 5.33334 4.00016 5.33334C4.80016 5.33334 5.51083 5.69468 6.00016 6.25401L9.39483 4.55734C9.3555 4.37734 9.3335 4.19134 9.3335 4.00001C9.3335 2.52934 10.5302 1.33334 12.0002 1.33334C13.4702 1.33334 14.6668 2.52934 14.6668 4.00001C14.6668 5.47001 13.4702 6.66668 12.0002 6.66668C11.2002 6.66668 10.4895 6.30534 10.0002 5.74534L6.6055 7.44201C6.64483 7.62268 6.66683 7.80801 6.66683 8.00001C6.66683 8.19201 6.64483 8.37801 6.6055 8.55734L10.0002 10.254ZM13.3335 4.00001C13.3335 3.26334 12.7362 2.66668 12.0002 2.66668C11.2642 2.66668 10.6668 3.26334 10.6668 4.00001C10.6668 4.73601 11.2642 5.33334 12.0002 5.33334C12.7362 5.33334 13.3335 4.73601 13.3335 4.00001ZM4.00016 9.33334C3.26416 9.33334 2.66683 8.73601 2.66683 8.00001C2.66683 7.26334 3.26416 6.66668 4.00016 6.66668C4.73616 6.66668 5.3335 7.26334 5.3335 8.00001C5.3335 8.73601 4.73616 9.33334 4.00016 9.33334ZM10.6668 12C10.6668 12.736 11.2642 13.3333 12.0002 13.3333C12.7362 13.3333 13.3335 12.736 13.3335 12C13.3335 11.2633 12.7362 10.6667 12.0002 10.6667C11.2642 10.6667 10.6668 11.2633 10.6668 12Z" fill="#757575"/>
</g>
</g>
</svg>
